PathFileType	4	(X/Y/Z)	..\data\2014001\dynamic\2014001_C4_05.trc
DataRate	CameraRate	NumFrames	NumMarkers	Units	OrigDataRate	OrigDataStartFrame	OrigNumFrames
100.000000	100.000000	4	52	mm	100.000000	39	156
Frame#	Time	L_IAS			L_IPS			R_IPS			R_IAS			L_FTC			L_FLE			L_FME			L_FAX			L_TTC			L_FAL			L_TAM			L_FCC			L_FM1			L_FM2			L_FM5			R_FTC			R_FLE			R_FME			R_FAX			R_TTC			R_FAL			R_TAM			R_FCC			R_FM1			R_FM2			R_FM5			CV7			TV10			SXS			SJN			L_SIA			L_SRS			L_SAA			L_SAE			L_HLE			L_HME			L_UOA			L_RSP			L_UHE			L_HM2			L_HM5			R_SIA			R_SRS			R_SAA			R_SAE			R_HLE			R_HME			R_UOA			R_RSP			R_UHE			R_HM2			R_HM5			
		X1	Y1	Z1	X2	Y2	Z2	X3	Y3	Z3	X4	Y4	Z4	X5	Y5	Z5	X6	Y6	Z6	X7	Y7	Z7	X8	Y8	Z8	X9	Y9	Z9	X10	Y10	Z10	X11	Y11	Z11	X12	Y12	Z12	X13	Y13	Z13	X14	Y14	Z14	X15	Y15	Z15	X16	Y16	Z16	X17	Y17	Z17	X18	Y18	Z18	X19	Y19	Z19	X20	Y20	Z20	X21	Y21	Z21	X22	Y22	Z22	X23	Y23	Z23	X24	Y24	Z24	X25	Y25	Z25	X26	Y26	Z26	X27	Y27	Z27	X28	Y28	Z28	X29	Y29	Z29	X30	Y30	Z30	X31	Y31	Z31	X32	Y32	Z32	X33	Y33	Z33	X34	Y34	Z34	X35	Y35	Z35	X36	Y36	Z36	X37	Y37	Z37	X38	Y38	Z38	X39	Y39	Z39	X40	Y40	Z40	X41	Y41	Z41	X42	Y42	Z42	X43	Y43	Z43	X44	Y44	Z44	X45	Y45	Z45	X46	Y46	Z46	X47	Y47	Z47	X48	Y48	Z48	X49	Y49	Z49	X50	Y50	Z50	X51	Y51	Z51	X52	Y52	Z52	

40	0.39	-647.9568481445314	882.097839355469	126.9263229370117	-823.9674072265627	911.1323242187502	201.2264556884765	-823.4372558593752	909.601745605469	289.6280517578124	-647.1866455078126	880.978210449219	365.68896484375	-711.7944946289064	790.7757568359377	67.38967132568352	-576.6789550781251	460.1106262207032	80.85209655761713	-539.9977416992189	450.5191040039064	192.432861328125	-593.4902954101564	399.5057067871095	78.42843627929682	-523.1372680664064	380.6001281738282	115.0127563476562	-605.3001098632814	79.80754852294923	115.1517333984375	-571.0068359375001	90.28527832031251	197.390380859375	-639.5978393554689	37.36481475830079	167.0657196044921	-462.3796386718751	50.04549789428712	158.9811096191406	-470.284881591797	61.99531555175783	102.4163742065429	-518.5857543945314	42.06670761108399	71.16206359863277	-745.8208007812501	786.713317871094	421.2371826171875	-778.7363281250002	438.364227294922	370.3656005859374	-762.7359008789064	429.6076660156251	253.3185729980468	-807.671813964844	374.2041015625001	371.2468872070312	-747.1130981445314	360.8999938964844	321.6085205078124	-888.3528442382815	72.44564819335939	310.9464111328124	-846.4119262695315	86.77200317382814	229.5400390624999	-932.1394042968752	37.21486282348634	252.7767639160156	-745.7100219726564	23.68646049499512	247.8798370361328	-742.8977050781251	34.32412719726563	312.1810607910156	-805.3295898437502	23.245512008667	354.2017822265624	-792.0320434570315	1380.588134765625	250.3278503417968	-853.3452148437502	1145.203491210938	256.4050292968749	-619.1287841796876	1154.5380859375	232.7030029296875	-665.4608764648439	1315.8916015625	235.3441619873047	-866.444519042969	1184.667602539063	167.5712280273437	-844.1968383789065	1314.886474609375	168.9217224121093	-785.929870605469	1310.835327148438	55.10157775878898	-743.7603149414064	1321.789672851563	62.13810348510734	-808.4988403320315	1047.150756835938	-13.29354858398448	-828.6033935546877	1014.462585449219	66.87269592285148	-839.5179443359377	1019.844787597656	18.69549751281728	-758.8715209960939	800.8335571289065	-8.228141784668063	-818.9587402343752	814.841735839844	-64.98070526123058	-754.4099731445314	712.8566284179689	-22.51838111877451	-844.2893066406252	740.9356079101564	-69.67058563232433	-842.7502441406252	1190.56689453125	374.9711608886718	-824.2608032226565	1314.178955078125	344.0937805175781	-737.3331909179689	1314.546508789063	437.2394409179688	-689.2547607421876	1319.99951171875	419.8392028808594	-687.3997192382815	1025.278564453125	520.50927734375	-723.5533447265626	997.7561645507815	451.4287109375	-717.1812744140627	992.992370605469	498.3721008300781	-540.6357421875002	849.0108642578127	482.7194519042969	-584.0410766601565	834.3814697265627	550.9880981445312	-479.9455566406252	781.7337036132815	500.1549987792969	-561.8041992187502	757.5515136718751	556.4251708984375	
41	0.4	-634.5251464843751	879.3245239257815	127.1763687133789	-810.9544677734377	908.481628417969	200.4929504394531	-810.904968261719	907.3987426757815	288.6651916503906	-635.2347412109376	878.476257324219	366.0055236816406	-698.6838378906251	787.7553710937502	67.33354949951165	-562.5560302734376	457.3613586425782	81.94897460937494	-526.1022949218751	448.6185607910157	193.5164642333984	-575.6569213867189	396.1889953613282	79.42359161376947	-504.5543212890626	381.3787536621094	116.240478515625	-563.2642822265626	76.32523345947267	114.2304534912109	-530.2516479492189	89.03504943847658	196.5666961669922	-594.3777465820314	31.10032844543458	165.9767913818359	-418.6761474609376	57.34232330322267	158.4674835205078	-427.0274353027345	68.79348754882814	101.9178848266601	-473.6372985839845	45.4502067565918	70.37438964843746	-735.1832275390626	785.289245605469	421.3827209472656	-773.9121093750002	437.8741455078126	370.2308959960937	-757.0819091796876	428.4996032714845	253.4483337402343	-803.7524414062502	374.0715026855469	370.8949584960937	-743.1708374023439	359.7344970703126	321.7929382324218	-887.8250122070315	73.16117095947267	310.1010437011718	-845.2678833007815	87.2034378051758	228.7188720703124	-931.668151855469	38.29785156250001	251.7299041748046	-745.3812866210939	23.61196327209473	247.9848480224609	-742.7891235351564	34.27706527709962	312.2218933105468	-805.5971679687502	23.36773681640625	353.8434753417968	-777.9370727539065	1378.23974609375	249.7030944824218	-840.1109619140627	1143.31494140625	255.9148406982421	-605.7774047851564	1151.48828125	232.7127532958984	-651.4151000976564	1313.0185546875	234.8909759521484	-852.8765258789065	1182.277099609375	167.4431915283202	-830.2034301757815	1312.470336914063	168.5035858154296	-772.0355224609377	1307.9130859375	54.77036285400383	-729.8385009765626	1318.726806640625	61.54937744140617	-797.4057617187502	1044.85205078125	-13.48345279693614	-817.3354492187502	1012.263366699219	66.76610565185538	-828.4309692382815	1018.187194824219	18.8031063079833	-752.1977539062501	797.902526855469	-9.803279876709079	-812.6643676757815	813.208679199219	-65.85604858398449	-749.7642822265626	709.8441772460939	-24.32259559631358	-839.5481567382815	739.8060913085939	-70.46033477783214	-829.0374145507815	1188.661376953125	374.8092346191406	-810.218933105469	1312.217895507813	343.6742553710937	-722.9877929687501	1312.536010742188	436.8731079101562	-675.1299438476564	1317.764892578125	419.2431945800782	-670.843688964844	1023.717163085938	521.7216796875	-706.7760009765626	995.3918457031252	452.9832458496094	-700.0977783203127	990.669128417969	500.0234069824219	-519.4886474609377	851.6160278320315	482.3057250976563	-562.0566406250002	835.4119873046877	550.7587280273438	-456.6491088867189	786.2125244140627	499.2165527343751	-537.5919189453127	759.2113037109376	555.6428833007812	
42	0.41	-621.0062866210939	876.3109130859377	127.3327102661132	-797.8674316406252	905.6535644531252	199.6813812255859	-798.293884277344	905.059997558594	287.6412048339843	-623.1371459960939	875.8623046875002	366.2042541503906	-685.5762329101564	784.5234375000002	67.23114013671868	-548.6600341796876	454.3491516113282	82.95532989501947	-512.5716552734376	446.3928527832032	194.6988525390625	-558.0596923828126	392.8899230957032	80.33592987060541	-486.4371032714845	382.0607604980469	117.43896484375	-522.2486572265626	74.27864837646486	113.3245315551757	-490.6144104003907	89.07197570800783	195.7977905273438	-550.1508789062501	26.49458885192872	164.9072113037109	-376.6612854003907	65.77786254882814	158.3061981201172	-385.2388610839845	76.6107635498047	101.7419662475586	-429.971160888672	50.03590011596681	69.82550811767574	-724.3568115234376	783.7609863281252	421.4921264648438	-768.6864013671877	437.3477783203126	370.1223144531249	-751.1412963867189	427.3202209472657	253.6021881103515	-799.4326782226565	373.9259643554688	370.5937194824218	-738.9013061523439	358.5008239746094	321.9549865722656	-887.2875976562502	73.98770141601564	309.4367675781249	-844.2552490234377	87.71340179443361	228.0196838378906	-931.2956542968752	39.57959365844727	250.9405975341796	-745.1425781250001	23.5809440612793	248.0803527832031	-742.6989746093751	34.23757934570313	312.2557067871093	-805.8802490234377	23.46566963195801	353.5400695800781	-763.7616577148439	1375.72265625	249.0138092041015	-826.827819824219	1141.280029296875	255.3040466308593	-592.3756713867189	1148.250610351563	232.6564788818359	-637.3020629882814	1309.953857421875	234.3946838378906	-839.226013183594	1179.75146484375	167.143569946289	-816.1208496093752	1309.931762695313	167.9820251464843	-757.9958496093751	1304.870727539063	54.32969284057609	-715.7755126953126	1315.548706054688	60.90348434448235	-786.033630371094	1042.410034179688	-13.74924087524424	-805.7172851562502	1009.896362304688	66.5578079223632	-817.033874511719	1016.3212890625	18.80728149414053	-744.9601440429689	794.9424438476565	-11.39194297790537	-805.7281494140627	811.4722290039065	-66.74201202392589	-744.4246215820314	706.8327026367189	-26.15160751342783	-834.051940917969	738.5775146484376	-71.27160644531261	-815.3395996093752	1186.577392578125	374.4914245605468	-796.126403808594	1310.074340820313	343.1444396972656	-708.5828247070314	1310.292358398438	436.4349365234375	-660.9679565429689	1315.272827148438	418.5653381347657	-654.3717041015627	1021.894836425781	522.73681640625	-690.0595092773439	992.8047485351565	454.3197326660157	-683.1212158203127	988.152038574219	501.4690551757813	-498.7272949218752	853.9541015625002	481.6976623535157	-540.3748168945315	836.281433105469	550.3438110351562	-433.859100341797	790.4395141601565	498.0666503906251	-513.758239746094	760.7700195312501	554.714111328125	
43	0.42	-607.3770751953126	873.1294555664065	127.4077911376953	-784.6870727539065	902.6975097656252	198.7786712646484	-785.579772949219	902.623962402344	286.5427551269531	-610.8717651367189	873.1833496093752	366.3014526367188	-672.3901977539064	781.166687011719	67.06022644042962	-534.8236694335939	451.2003173828126	83.85160827636713	-499.2435302734376	443.9770507812501	195.952880859375	-540.6530151367189	389.696990966797	81.15388488769526	-468.7069702148439	382.6525268554688	118.5748138427734	-482.7740478515626	73.47322082519533	112.5030288696289	-452.5605773925782	90.17422485351564	195.1453552246094	-507.5376281738282	23.38791275024414	163.9346923828125	-336.7677917480469	74.92807769775392	158.5019683837891	-345.3672790527344	85.05134582519533	101.8961791992187	-388.1141662597657	55.47631072998048	69.55383300781247	-713.3221435546876	782.158630371094	421.5551452636719	-763.0148315429689	436.8006591796876	370.0526123046874	-744.8927001953126	426.0975646972657	253.7811126708984	-794.6669921875002	373.7804565429688	370.3653869628906	-734.2743530273439	357.2246704101563	322.0991516113281	-886.7319946289065	74.95668792724611	309.0011291503906	-843.3735961914065	88.3402786254883	227.4834289550781	-931.0210571289065	41.10247802734376	250.4537048339843	-744.9819946289064	23.60089683532715	248.1782684326172	-742.6013793945314	34.20905303955079	312.2963562011718	-806.1455078125002	23.54081916809082	353.3144531249999	-749.5086059570314	1373.08154296875	248.2582397460937	-813.4777832031252	1139.13232421875	254.5851898193359	-578.9064331054689	1144.885620117188	232.5229797363281	-623.1251831054689	1306.755249023438	233.8468322753906	-825.492370605469	1177.131713867188	166.6827545166015	-801.9547119140627	1307.312133789063	167.3598937988281	-743.8292236328126	1301.753051757813	53.77850723266594	-701.5859985351564	1312.300659179688	60.19748306274407	-774.367126464844	1039.854125976563	-14.08956718444834	-793.7354736328127	1007.392883300781	66.25901031494132	-805.3101806640627	1014.274719238281	18.71677398681631	-737.1254272460939	791.9656372070315	-12.99029254913339	-798.120788574219	809.6450195312502	-67.64334106445324	-738.3613891601564	703.8197631835939	-27.98949432373056	-827.7751464843752	737.2581176757814	-72.11028289794933	-801.640808105469	1184.353393554688	374.0208740234374	-781.981628417969	1307.788696289063	342.5043945312499	-694.1308593750001	1307.8583984375	435.9187011718751	-646.7703857421876	1312.577880859375	417.8040771484376	-638.0058593750002	1019.851440429688	523.5322265625	-673.4197998046876	990.0415649414065	455.4022827148438	-666.265563964844	985.478942871094	502.6673583984376	-478.3795471191408	856.0250244140627	480.9060363769532	-519.0521240234377	836.9910278320315	549.7401733398438	-411.6125793457033	794.3979492187502	496.7318725585938	-490.3732299804689	762.2199096679689	553.6409912109375	
